# xmcd
#
# Track frame offsets:
#	150
#	25402
#	45713
#	57042
#	67029
#	75495
#	90458
#	106685
#	121599
#	131202
#	141541
#	151608
#	163372
#	174368
#	188018
#	199253
#	211563
#	226849
#	237028
#	252586
#	264097
#	275700
#	293273
#	304222
#	320274
#	329730
#	342054
#
# Disc length: 4753 seconds
#
# Revision: 0
# Processed by: cddbd v1.5.2PL0 Copyright (c) Steve Scherf et al.
# Submitted via: audiograbber 1.83.01
#
DISCID=74128f1b
DTITLE=NEDVED - MIKI VYBER 1
DYEAR=2007
DGENRE=Balady
TTITLE0=N1
TTITLE1=N2
TTITLE2=N3
TTITLE3=N4
TTITLE4=N5
TTITLE5=N6
TTITLE6=N 7
TTITLE7=N 8
TTITLE8=N 9
TTITLE9=N10
TTITLE10=N 11
TTITLE11=N 12
TTITLE12=N13
TTITLE13=N14
TTITLE14=N15
TTITLE15=N16
TTITLE16=N 17
TTITLE17=N18
TTITLE18=N19
TTITLE19=N20
TTITLE20=N21
TTITLE21=N22
TTITLE22=N23
TTITLE23=N24
TTITLE24=N25
TTITLE25=N26
TTITLE26=N27
EXTD=MP3
EXTT0=
EXTT1=
EXTT2=
EXTT3=
EXTT4=
EXTT5=
EXTT6=
EXTT7=
EXTT8=
EXTT9=
EXTT10=
EXTT11=
EXTT12=
EXTT13=
EXTT14=
EXTT15=
EXTT16=
EXTT17=
EXTT18=
EXTT19=
EXTT20=
EXTT21=
EXTT22=
EXTT23=
EXTT24=
EXTT25=
EXTT26=
PLAYORDER=
